Coordinates
version=1
nRows=9
nColumns=36
inDegrees=yes

Units are S.I. units (second, meters, Newtons, ...)
If the header above contains a line with 'inDegrees', this indicates whether rotational values are in degrees (yes) or radians (no).

endheader
time	pelvis_tilt	pelvis_list	pelvis_rotation	pelvis_tx	pelvis_ty	pelvis_tz	hip_flexion_r	hip_adduction_r	hip_rotation_r	knee_angle_r	knee_angle_r_beta	ankle_angle_r	subtalar_angle_r	mtp_angle_r	hip_flexion_l	hip_adduction_l	hip_rotation_l	knee_angle_l	knee_angle_l_beta	ankle_angle_l	subtalar_angle_l	mtp_angle_l	lumbar_extension	lumbar_bending	lumbar_rotation	arm_flex_r	arm_add_r	arm_rot_r	elbow_flex_r	pro_sup_r	arm_flex_l	arm_add_l	arm_rot_l	elbow_flex_l	pro_sup_l
      0.00000000	     -2.38475527	     -1.13572486	     -1.61192314	      0.43386516	      1.31450372	     -0.30253535	     -0.64997917	      1.46934961	     -0.28471294	      0.61190388	      0.01067974	     21.52158043	      9.21692382	     -5.85033775	     -3.34796414	     -1.61907061	     -0.24588785	      0.75514450	      0.01317976	     19.54182453	      4.21353458	     -5.85033775	      1.12361160	      0.68528091	      4.24986364	     -0.66792758	    -16.93933618	     35.78662622	     21.00202207	     66.57043534	     -9.67370501	    -18.32250653	     17.08684364	     49.04056642	     76.23977738
      0.01666670	     -2.55374137	     -1.21219161	     -1.84565486	      0.43089302	      1.31072072	     -0.30355800	     -0.66694829	      1.66617818	      0.27782016	      0.46133973	      0.00805190	     22.52599597	      9.93294258	     -5.99011763	     -3.24629047	     -1.54583470	     -1.30772249	      0.58873855	      0.01027543	     19.27569264	      4.01544163	     -5.99011763	      0.44589018	      0.50259641	      4.80805131	     -0.11908731	    -16.88212322	     35.20029596	     21.08451115	     66.15703651	    -10.06752951	    -17.82510986	     16.95005747	     49.64475173	     74.41502314
      0.03333330	     -2.05859944	     -1.51467062	     -1.68587664	      0.42730811	      1.31361039	     -0.30480327	     -1.09077916	      2.10494577	      0.07753844	      0.53741216	      0.00937961	     22.08685655	     10.12491271	     -6.01541824	     -3.74956540	     -1.79907002	     -1.38460148	      0.41632232	      0.00726620	     19.42743590	      3.99119954	     -6.01541824	     -1.08592706	      0.88785445	      5.15818842	      0.11999894	    -17.23771711	     34.80947058	     21.09775266	     66.16043603	     -9.27267821	    -17.43045294	     16.47781922	     49.44521742	     74.30908325
      0.05000000	     -1.23161758	     -1.54407737	     -1.69023745	      0.42481738	      1.31742050	     -0.30519178	     -1.71871317	      2.12904891	     -0.91055264	      0.77956768	      0.01360602	     21.96963281	     10.81586607	     -6.25149484	     -4.57248088	     -1.69981847	     -1.85618278	      0.42912405	      0.00748963	     19.11193947	      3.92089370	     -6.25149484	     -2.81865566	      0.91663747	      5.75957067	      0.04929137	    -17.57377663	     34.02537355	     22.06919313	     65.32863023	     -8.63913653	    -16.93301285	     15.87025073	     49.92958790	     72.97095662
      0.06666670	     -0.06108748	     -1.49447019	     -1.84424059	      0.42198756	      1.31893909	     -0.30597050	     -2.80862623	      2.12332843	     -0.85600264	      0.97026284	      0.01693428	     21.95717083	     10.77860946	     -6.44713673	     -5.65486296	     -1.49603678	     -2.14799372	      0.42752381	      0.00746170	     18.94198047	      3.87036688	     -6.44713673	     -4.84885921	      0.92978930	      6.04562906	      0.39429269	    -17.22879504	     31.26832264	     22.02858891	     63.59171511	     -8.35885305	    -16.60622553	     15.31349773	     50.84271823	     71.50087233
      0.08333330	      0.71720557	     -1.32122861	     -2.15579581	      0.41974228	      1.32025050	     -0.30573886	     -3.54517408	      1.92204781	     -0.94338221	      1.11552553	      0.01946959	     22.02278715	     11.12883350	     -6.61692759	     -6.32626028	     -1.21412652	     -2.61828592	      0.39379613	      0.00687304	     18.68951809	      4.00692349	     -6.61692759	     -6.27993766	      0.71883458	      6.88115555	      0.01580572	    -17.66103716	     31.01880066	     23.69170686	     62.82549294	     -8.06439778	    -16.40504091	     15.00900999	     51.91287048	     69.87727233
      0.10000000	      1.65715221	     -1.20577300	     -2.27979673	      0.41762640	      1.32114832	     -0.30610360	     -4.49111288	      1.76700264	     -1.02075495	      1.19022316	      0.02077331	     22.07147473	     11.07764754	     -6.75254272	     -7.18025658	     -1.01331389	     -2.78503508	      0.37908359	      0.00661626	     18.72964089	      4.21752014	     -6.75254272	     -7.91485981	      0.59095388	      7.03560650	      0.53930110	    -17.44811036	     30.31170711	     23.54451518	     61.75612430	     -7.78345545	    -16.51959429	     15.46586011	     52.83113151	     68.90431280
      0.11666670	      2.14462860	     -1.04195886	     -2.34109906	      0.41624239	      1.32202713	     -0.30593149	     -4.99935394	      1.56566159	     -1.09525919	      1.22747684	      0.02142351	     22.20142916	     11.05699291	     -6.92373961	     -7.59947295	     -0.79387441	     -2.90859414	      0.36488893	      0.00636851	     18.54759723	      4.33335667	     -6.92373961	     -8.85375726	      0.41348706	      7.34736623	      0.47700390	    -17.41947077	     29.83883947	     24.02317258	     59.12655500	     -7.74525228	    -16.59082686	     15.68429728	     53.83416567	     66.67430367
      0.13333330	      2.46117704	     -0.91133823	     -2.37286655	      0.41527562	      1.32201816	     -0.30619638	     -5.32464350	      1.40495813	     -1.13619387	      1.22518915	      0.02138358	     22.21581317	     11.14893435	     -7.09360418	     -7.89060896	     -0.61861782	     -2.87322317	      0.34672365	      0.00605147	     18.49938150	      4.30670973	     -7.09360418	     -9.61530297	      0.20377429	      7.54506489	      0.20093804	    -17.56075520	     30.02270821	     24.78467745	     58.38800295	     -7.74821020	    -16.84865665	     16.23452025	     54.90181125	     65.43119473
